<svg xmlns="http://www.w3.org/2000/svg" width="1000" height="460" viewBox="0 0 1000 460">
  <rect width="1000" height="460" fill="#f7fafc"/>
  <text x="40" y="55" font-family="Helvetica,Arial,sans-serif" font-size="26" font-weight="700" fill="#1a202c">Report calendar</text>
  <text x="40" y="85" font-family="Helvetica,Arial,sans-serif" font-size="16" fill="#718096">Screenshot placeholder: output/reports/index.html</text>
  <g fill="#fff" stroke="#e2e8f0">
    <rect x="40" y="110" width="124" height="100" rx="8"/><rect x="172" y="110" width="124" height="100" rx="8"/>
    <rect x="304" y="110" width="124" height="100" rx="8"/><rect x="436" y="110" width="124" height="100" rx="8"/>
    <rect x="568" y="110" width="124" height="100" rx="8"/><rect x="700" y="110" width="124" height="100" rx="8"/>
    <rect x="832" y="110" width="124" height="100" rx="8"/>
    <rect x="40" y="220" width="124" height="100" rx="8"/><rect x="172" y="220" width="124" height="100" rx="8"/>
    <rect x="304" y="220" width="124" height="100" rx="8"/><rect x="436" y="220" width="124" height="100" rx="8"/>
    <rect x="568" y="220" width="124" height="100" rx="8"/><rect x="700" y="220" width="124" height="100" rx="8"/>
    <rect x="832" y="220" width="124" height="100" rx="8"/>
  </g>
  <g>
    <circle cx="60" cy="190" r="6" fill="#3182ce"/><circle cx="192" cy="190" r="6" fill="#3182ce"/>
    <circle cx="208" cy="190" r="6" fill="#38a169"/><circle cx="324" cy="190" r="6" fill="#3182ce"/>
    <circle cx="456" cy="300" r="6" fill="#3182ce"/><circle cx="472" cy="300" r="6" fill="#38a169"/>
  </g>
  <text x="40" y="370" font-family="Helvetica,Arial,sans-serif" font-size="15" fill="#4a5568">Blue dot: Engineering Pulse · Green dot: Sprint report · Select a day to read its reports</text>
</svg>
